<?xml version="1.0" encoding="utf-8"?>
<!-- Generator: Adobe Illustrator 20.1.0, SVG Export Plug-In . SVG Version: 6.00 Build 0)  -->
<svg version="1.1" id="Layer_1" xmlns="http://www.w3.org/2000/svg" xmlns:xlink="http://www.w3.org/1999/xlink" x="0px" y="0px"
	 viewBox="0 0 531.6 510.5" style="enable-background:new 0 0 531.6 510.5;" xml:space="preserve">
<style type="text/css">
	.st0{fill:#4F4E4F;}
</style>
<g>
	<g>
		<path class="st0" d="M499.4,255.7c0-127.3-103.2-230.5-230.5-230.5c-127.3,0-230.5,103.2-230.5,230.5
			c0,127.3,103.2,230.5,230.5,230.5C396.2,486.2,499.4,383,499.4,255.7z M59.3,255.7c0-115.8,93.8-209.6,209.6-209.6
			s209.6,93.8,209.6,209.6s-93.8,209.6-209.6,209.6S59.3,371.4,59.3,255.7z"/>
		<path class="st0" d="M275.8,385.6v-131h45.8l6.9-49h-52.7v-16.1c0-11.5,5.7-24.9,22.2-24.9h35.8v-49h-49.7
			c-39.4,0-48.3,33.3-48.3,69.3v20.7h-33v49h33v131H275.8L275.8,385.6z"/>
	</g>
</g>
</svg>
