<?xml version="1.0" encoding="utf-8"?>
<!-- Generator: Adobe Illustrator 20.1.0, SVG Export Plug-In . SVG Version: 6.00 Build 0)  -->
<svg version="1.1" id="Layer_1" xmlns="http://www.w3.org/2000/svg" xmlns:xlink="http://www.w3.org/1999/xlink" x="0px" y="0px"
	 viewBox="0 0 531.6 510.5" style="enable-background:new 0 0 531.6 510.5;" xml:space="preserve">
<style type="text/css">
	.st0{fill:#4F4E4F;}
</style>
<g>
	<path class="st0" d="M414.8,148.1c0,8.5-6.9,15.4-15.4,15.4h-27.1c-8.5,0-15.4-6.9-15.4-15.4V121c0-8.5,6.9-15.4,15.4-15.4h27.1
		c8.5,0,15.4,6.9,15.4,15.4V148.1z"/>
	<path class="st0" d="M265.4,201.2c-11.2,0-21.6,3.3-30.5,8.7c2.8-0.9,5.7-1.4,8.7-1.4c16.5,0,29.9,13.4,29.9,29.9
		c0,16.5-13.4,29.9-29.9,29.9s-29.9-13.4-29.9-29.9c0-3.1,0.6-6,1.5-8.7c-5.4,8.9-8.7,19.3-8.7,30.5c0,32.6,26.3,58.9,58.9,58.9
		c32.5,0,58.9-26.3,58.9-58.9S297.9,201.2,265.4,201.2z"/>
	<g>
		<path class="st0" d="M265.4,167.4c51.2,0,92.7,41.5,92.7,92.7s-41.5,92.7-92.7,92.7c-51.2,0-92.7-41.5-92.7-92.7
			S214.2,167.4,265.4,167.4 M265.4,136.5c-68.1,0-123.6,55.4-123.6,123.6s55.4,123.6,123.6,123.6S389,328.3,389,260.1
			S333.5,136.5,265.4,136.5L265.4,136.5z"/>
	</g>
	<path class="st0" d="M465.8,129.9c0-41.6-33.7-75.3-75.3-75.3H140.2c-41.6,0-75.3,33.7-75.3,75.3v250.4c0,41.6,33.7,75.3,75.3,75.3
		h250.4c41.6,0,75.3-33.7,75.3-75.3V129.9z M436.8,192.6H334.3c14.7,22,23.7,40.9,23.7,64.7c0,51.2-41.5,94.1-92.7,94.1
		c-51.2,0-92.7-43.6-92.7-94.9c0-23.8,9-42,23.7-64H93.8v-58c0-24.5,21.5-51,46-51h251.1c24.5,0,45.9,26.5,45.9,51V192.6z"/>
</g>
</svg>
