<?xml version="1.0" encoding="utf-8"?>
<!-- Generator: Adobe Illustrator 20.1.0, SVG Export Plug-In . SVG Version: 6.00 Build 0)  -->
<svg version="1.1" id="Layer_1" xmlns="http://www.w3.org/2000/svg" xmlns:xlink="http://www.w3.org/1999/xlink" x="0px" y="0px"
	 viewBox="0 0 531.6 510.5" style="enable-background:new 0 0 531.6 510.5;" xml:space="preserve">
<style type="text/css">
	.st0{fill:#4F4E4F;}
</style>
<g id="XMLID_798_">
	<path id="XMLID_799_" class="st0" d="M395.2,85.4c-29-27.8-69.1-43.2-113-43.2c-67,0-108.2,27.5-131,50.5
		c-28.1,28.4-44.2,66.1-44.2,103.5c0,46.9,19.6,82.9,52.5,96.3c2.2,0.9,4.4,1.4,6.6,1.4c6.9,0,12.4-4.5,14.3-11.8
		c1.1-4.2,3.7-14.5,4.8-18.9c2.4-8.8,0.5-13.1-4.8-19.2c-9.5-11.2-13.9-24.5-13.9-41.8c0-51.4,38.3-106,109.2-106
		c56.3,0,91.2,32,91.2,83.5c0,32.5-7,62.6-19.7,84.7c-8.8,15.4-24.4,33.7-48.2,33.7c-10.3,0-19.6-4.2-25.4-11.6
		c-5.5-7-7.3-16-5.1-25.4c2.5-10.6,5.9-21.7,9.2-32.4c6-19.6,11.7-38,11.7-52.8c0-25.2-15.5-42.1-38.6-42.1
		c-29.3,0-52.3,29.8-52.3,67.8c0,18.6,5,32.6,7.2,37.9c-3.7,15.6-25.6,108.6-29.8,126.2c-2.4,10.2-16.9,91.1,7.1,97.5
		c27,7.2,51.1-71.5,53.5-80.4c2-7.2,8.9-34.6,13.2-51.4c13,12.5,34,21,54.4,21c38.4,0,73-17.3,97.3-48.7
		c23.6-30.5,36.6-72.9,36.6-119.5C438.1,147.5,422.5,111.6,395.2,85.4z"/>
</g>
</svg>
