<?xml version="1.0" encoding="utf-8"?>
<!-- Generator: Adobe Illustrator 20.1.0, SVG Export Plug-In . SVG Version: 6.00 Build 0)  -->
<svg version="1.1" id="Layer_1" xmlns="http://www.w3.org/2000/svg" xmlns:xlink="http://www.w3.org/1999/xlink" x="0px" y="0px"
	 viewBox="0 0 531.6 510.5" style="enable-background:new 0 0 531.6 510.5;" xml:space="preserve">
<style type="text/css">
	.st0{fill:#4F4E4F;}
</style>
<g>
	<g>
		<path class="st0" d="M269.8,29.8c-120.5,0-218.6,98-218.6,218.6c0,120.5,98,218.6,218.6,218.6c120.5,0,218.6-98.1,218.6-218.6
			C488.4,127.9,390.4,29.8,269.8,29.8z M367.3,198.4c0.1,2.2,0.1,4.3,0.1,6.5c0,66.5-50.6,143.1-143.1,143.1
			c-28.4,0-54.9-8.3-77.1-22.6c3.9,0.5,7.9,0.7,12,0.7c23.6,0,45.3-8,62.5-21.5c-22-0.4-40.6-14.9-47-34.9c3.1,0.6,6.2,0.9,9.5,0.9
			c4.6,0,9-0.6,13.3-1.8c-23-4.6-40.3-24.9-40.3-49.3c0-0.2,0-0.4,0-0.6c6.8,3.8,14.5,6,22.8,6.3c-13.5-9-22.4-24.4-22.4-41.9
			c0-9.2,2.5-17.9,6.8-25.3c24.8,30.4,61.9,50.5,103.7,52.6c-0.9-3.7-1.3-7.5-1.3-11.5c0-27.8,22.5-50.3,50.3-50.3
			c14.5,0,27.5,6.1,36.7,15.9c11.5-2.3,22.2-6.4,32-12.2c-3.8,11.8-11.7,21.6-22.2,27.8c10.2-1.2,19.9-3.9,28.9-7.9
			C385.7,182.4,377.2,191.3,367.3,198.4z"/>
	</g>
</g>
</svg>
